<svg width="16" height="16" viewBox="0 0 16 16" fill="none" xmlns="http://www.w3.org/2000/svg">
<path d="M14.6669 11.2827V13.2827C14.6677 13.4683 14.6297 13.6521 14.5553 13.8222C14.4809 13.9924 14.3718 14.1451 14.235 14.2706C14.0982 14.3961 13.9367 14.4917 13.7608 14.5511C13.5849 14.6106 13.3985 14.6327 13.2136 14.616C11.1622 14.3931 9.19161 13.6921 7.46028 12.5693C5.8495 11.5458 4.48384 10.1801 3.46028 8.56934C2.3336 6.83014 1.63244 4.85 1.41361 2.78934C1.39695 2.60498 1.41886 2.41918 1.47795 2.24375C1.53703 2.06833 1.63199 1.90713 1.75679 1.77042C1.88159 1.6337 2.03348 1.52448 2.20281 1.44968C2.37213 1.37489 2.55517 1.33618 2.74028 1.336H4.74028C5.06382 1.33282 5.37748 1.44739 5.62279 1.65836C5.8681 1.86933 6.02833 2.1623 6.07361 2.48267C6.15803 3.12271 6.31458 3.75115 6.54028 4.356C6.62998 4.59462 6.64939 4.85395 6.59622 5.10326C6.54305 5.35257 6.41952 5.58141 6.24028 5.76267L5.39361 6.60934C6.34265 8.27837 7.72458 9.6603 9.39361 10.6093L10.2403 9.76267C10.4215 9.58343 10.6504 9.4599 10.8997 9.40673C11.149 9.35356 11.4083 9.37297 11.6469 9.46267C12.2518 9.68837 12.8802 9.84492 13.5203 9.92934C13.8441 9.97502 14.1399 10.1381 14.3513 10.3877C14.5627 10.6372 14.6751 10.9557 14.6669 11.2827Z" stroke="black" stroke-width="1.5" stroke-linecap="round" stroke-linejoin="round"/>
</svg>
