<svg width="16" height="16" viewBox="0 0 16 16" fill="none" xmlns="http://www.w3.org/2000/svg">
<g clip-path="url(#clip0_562_6779)">
<path d="M7.3335 2.66406H2.66683C2.31321 2.66406 1.97407 2.80454 1.72402 3.05459C1.47397 3.30464 1.3335 3.64377 1.3335 3.9974V13.3307C1.3335 13.6844 1.47397 14.0235 1.72402 14.2735C1.97407 14.5236 2.31321 14.6641 2.66683 14.6641H12.0002C12.3538 14.6641 12.6929 14.5236 12.943 14.2735C13.193 14.0235 13.3335 13.6844 13.3335 13.3307V8.66406" stroke="#5A43FF" stroke-width="1.5" stroke-linecap="round" stroke-linejoin="round"/>
<path d="M12.3335 1.66421C12.5987 1.399 12.9584 1.25 13.3335 1.25C13.7086 1.25 14.0683 1.399 14.3335 1.66421C14.5987 1.92943 14.7477 2.28914 14.7477 2.66421C14.7477 3.03929 14.5987 3.399 14.3335 3.66421L8.00016 9.99755L5.3335 10.6642L6.00016 7.99755L12.3335 1.66421Z" stroke="#5A43FF" stroke-width="1.5" stroke-linecap="round" stroke-linejoin="round"/>
</g>
<defs>
<clipPath id="clip0_562_6779">
<rect width="16" height="16" fill="white"/>
</clipPath>
</defs>
</svg>
