<svg width="20" height="20" viewBox="0 0 20 20" fill="none" xmlns="http://www.w3.org/2000/svg">
<path d="M11.6668 1.66406H5.00016C4.55814 1.66406 4.13421 1.83966 3.82165 2.15222C3.50909 2.46478 3.3335 2.8887 3.3335 3.33073V16.6641C3.3335 17.1061 3.50909 17.53 3.82165 17.8426C4.13421 18.1551 4.55814 18.3307 5.00016 18.3307H15.0002C15.4422 18.3307 15.8661 18.1551 16.1787 17.8426C16.4912 17.53 16.6668 17.1061 16.6668 16.6641V6.66406L11.6668 1.66406Z" stroke="#5A43FF" stroke-width="1.5" stroke-linecap="round" stroke-linejoin="round"/>
<path d="M11.6665 1.66406V6.66406H16.6665" stroke="#5A43FF" stroke-width="1.5" stroke-linecap="round" stroke-linejoin="round"/>
<path d="M13.3332 10.8359H6.6665" stroke="#5A43FF" stroke-width="1.5" stroke-linecap="round" stroke-linejoin="round"/>
<path d="M13.3332 14.1641H6.6665" stroke="#5A43FF" stroke-width="1.5" stroke-linecap="round" stroke-linejoin="round"/>
<path d="M8.33317 7.5H7.49984H6.6665" stroke="#5A43FF" stroke-width="1.5" stroke-linecap="round" stroke-linejoin="round"/>
</svg>
