<svg width="35" height="10" viewBox="0 0 35 10" fill="none" xmlns="http://www.w3.org/2000/svg">
<path d="M6.7452 4.05295H3.80025C3.72249 4.05295 3.66418 4.11126 3.66418 4.18902V5.62748C3.66418 5.70523 3.72249 5.76355 3.80025 5.76355H4.94712V7.5519C4.94712 7.5519 4.6847 7.63937 3.97519 7.63937C3.13933 7.63937 1.9633 7.32835 1.9633 4.75274C1.9633 2.1674 3.18793 1.82723 4.33481 1.82723C5.32618 1.82723 5.75383 2.00218 6.02597 2.08965C6.11344 2.11881 6.1912 2.03133 6.1912 1.95358L6.52165 0.56372C6.52165 0.524842 6.51193 0.485965 6.47305 0.456807C6.35642 0.379053 5.68579 0 3.97519 0C2.0119 0 0 0.83586 0 4.84993C0 8.864 2.30347 9.4666 4.24733 9.4666C5.86074 9.4666 6.83267 8.77653 6.83267 8.77653C6.87155 8.75709 6.88127 8.69877 6.88127 8.66962V4.18902C6.88127 4.11126 6.82295 4.05295 6.7452 4.05295Z" fill="black"/>
<path d="M21.9063 0.48568C21.9063 0.407925 21.848 0.349609 21.7703 0.349609H20.118C20.0402 0.349609 19.9819 0.407925 19.9819 0.48568V3.68333H17.3966V0.48568C17.3966 0.407925 17.3383 0.349609 17.2605 0.349609H15.6082C15.5305 0.349609 15.4722 0.407925 15.4722 0.48568V9.1553C15.4722 9.23305 15.5305 9.29137 15.6082 9.29137H17.2605C17.3383 9.29137 17.3966 9.23305 17.3966 9.1553V5.44252H19.9819V9.14558C19.9819 9.22333 20.0402 9.28165 20.118 9.28165H21.78C21.8577 9.28165 21.9161 9.22333 21.9161 9.14558V0.48568H21.9063Z" fill="black"/>
<path d="M9.87116 1.62279C9.87116 1.02991 9.39491 0.543945 8.80203 0.543945C8.20916 0.543945 7.73291 1.02991 7.73291 1.62279C7.73291 2.21567 8.20916 2.70163 8.80203 2.70163C9.39491 2.70163 9.87116 2.21567 9.87116 1.62279Z" fill="black"/>
<path d="M9.75445 7.31718C9.75445 7.09364 9.75445 3.31283 9.75445 3.31283C9.75445 3.23507 9.69614 3.17676 9.61838 3.17676H7.9661C7.88835 3.17676 7.82031 3.25451 7.82031 3.33227C7.82031 3.33227 7.82031 8.14332 7.82031 9.06665C7.82031 9.23188 7.92722 9.28048 8.0633 9.28048C8.0633 9.28048 8.7728 9.28048 9.55035 9.28048C9.71558 9.28048 9.75445 9.20272 9.75445 9.05693C9.75445 8.75564 9.75445 7.55044 9.75445 7.31718Z" fill="black"/>
<path d="M28.1965 3.19727H26.554C26.4762 3.19727 26.4179 3.25558 26.4179 3.33334V7.58067C26.4179 7.58067 26 7.88197 25.4071 7.88197C24.8142 7.88197 24.6587 7.60983 24.6587 7.03639C24.6587 6.45323 24.6587 3.33334 24.6587 3.33334C24.6587 3.25558 24.6004 3.19727 24.5226 3.19727H22.8509C22.7732 3.19727 22.7148 3.25558 22.7148 3.33334C22.7148 3.33334 22.7148 5.59793 22.7148 7.31825C22.7148 9.03857 23.6771 9.46622 24.9989 9.46622C26.0874 9.46622 26.9525 8.86362 26.9525 8.86362C26.9525 8.86362 26.9913 9.17464 27.0108 9.21351C27.0302 9.25239 27.0788 9.29127 27.1274 9.29127H28.1868C28.2646 9.29127 28.3229 9.23295 28.3229 9.1552V3.33334C28.3326 3.25558 28.2743 3.19727 28.1965 3.19727Z" fill="black"/>
<path d="M32.6869 3.00298C31.7539 3.00298 31.1221 3.42091 31.1221 3.42091V0.48568C31.1221 0.407925 31.0638 0.349609 30.9861 0.349609H29.3241C29.2463 0.349609 29.188 0.407925 29.188 0.48568V9.1553C29.188 9.23305 29.2463 9.29137 29.3241 9.29137H30.4807C30.5293 9.29137 30.5681 9.26221 30.5973 9.21361C30.6264 9.16502 30.6653 8.81512 30.6653 8.81512C30.6653 8.81512 31.3457 9.4566 32.6286 9.4566C34.1351 9.4566 35.0001 8.68877 35.0001 6.01596C35.0099 3.35287 33.6297 3.00298 32.6869 3.00298ZM32.0455 7.88207C31.472 7.86263 31.093 7.60993 31.093 7.60993V4.85937C31.093 4.85937 31.472 4.6261 31.9386 4.58722C32.5314 4.53863 33.1049 4.71358 33.1049 6.12287C33.0951 7.60993 32.8424 7.91123 32.0455 7.88207Z" fill="black"/>
<path d="M14.511 3.17726H13.267V1.53469C13.267 1.47638 13.2378 1.4375 13.16 1.4375H11.4689C11.4009 1.4375 11.3717 1.46666 11.3717 1.52497V3.22585C11.3717 3.22585 10.5261 3.42996 10.4678 3.4494C10.4095 3.46883 10.3706 3.51743 10.3706 3.58547V4.65459C10.3706 4.73234 10.4289 4.79066 10.5067 4.79066H11.3717C11.3717 4.79066 11.3717 5.90838 11.3717 7.35656C11.3717 9.26154 12.7032 9.44621 13.6071 9.44621C14.0153 9.44621 14.511 9.31014 14.5888 9.28098C14.6374 9.26154 14.6665 9.21294 14.6665 9.15463V7.97859C14.6665 7.90084 14.5985 7.84252 14.5305 7.84252C14.4624 7.84252 14.268 7.87168 14.0834 7.87168C13.4711 7.87168 13.267 7.58982 13.267 7.22049C13.267 6.85115 13.267 4.78094 13.267 4.78094H14.511C14.5888 4.78094 14.6471 4.72262 14.6471 4.64487V3.31333C14.6471 3.24529 14.5888 3.17726 14.511 3.17726Z" fill="black"/>
</svg>
