<svg width="34" height="34" viewBox="0 0 34 34" fill="none" xmlns="http://www.w3.org/2000/svg">
<circle cx="17" cy="17" r="17" fill="white"/>
<path d="M11.4323 20.2407L10.7362 22.8395L8.19173 22.8934C7.43132 21.483 7 19.8693 7 18.1545C7 16.4963 7.40327 14.9325 8.1181 13.5557H8.11865L10.3839 13.971L11.3762 16.2226C11.1685 16.8281 11.0553 17.4781 11.0553 18.1545C11.0554 18.8885 11.1884 19.5918 11.4323 20.2407Z" fill="#FABD10"/>
<path d="M26.8259 16.1318C26.9408 16.7367 27.0007 17.3615 27.0007 17.9999C27.0007 18.7158 26.9254 19.4142 26.782 20.0878C26.2952 22.3801 25.0232 24.3817 23.2612 25.7981L23.2607 25.7976L20.4074 25.652L20.0036 23.1311C21.1728 22.4455 22.0865 21.3724 22.5679 20.0878H17.2207V16.1318H22.6459H26.8259Z" fill="#4486F4"/>
<path d="M23.2592 25.9516L23.2598 25.9522C21.5461 27.3296 19.3692 28.1538 16.9995 28.1538C13.1913 28.1538 9.88039 26.0253 8.19141 22.8929L11.432 20.2402C12.2765 22.494 14.4506 24.0984 16.9995 24.0984C18.095 24.0984 19.1214 23.8022 20.0021 23.2852L23.2592 25.9516Z" fill="#3DA05A"/>
<path d="M23.3837 10.3021L20.1442 12.9543C19.2327 12.3845 18.1552 12.0554 17.0008 12.0554C14.3943 12.0554 12.1795 13.7334 11.3773 16.068L8.11969 13.401H8.11914C9.7834 10.1923 13.1361 8 17.0008 8C19.4271 8 21.6518 8.86428 23.3837 10.3021Z" fill="#E74638"/>
</svg>
