<svg width="16" height="16" viewBox="0 0 16 16" fill="none" xmlns="http://www.w3.org/2000/svg">
<path d="M8 0C3.58169 0 0 3.58169 0 8C0 12.4183 3.58169 16 8 16C12.4183 16 16 12.4183 16 8C16 3.58169 12.4182 0 8 0ZM5.86558 11.8676H4.1091V6.19294H5.86558V11.8676ZM4.97897 5.4498C4.40533 5.4498 3.94028 4.98097 3.94028 4.40272C3.94028 3.82442 4.40539 3.35561 4.97897 3.35561C5.55256 3.35561 6.0176 3.82442 6.0176 4.40272C6.01763 4.981 5.55259 5.4498 4.97897 5.4498ZM12.448 11.8676H10.7V8.88889C10.7 8.07191 10.3897 7.61587 9.74369 7.61587C9.04062 7.61587 8.67332 8.09084 8.67332 8.88889V11.8676H6.98865V6.19294H8.67332V6.95723C8.67332 6.95723 9.18007 6.01985 10.3833 6.01985C11.5866 6.01985 12.448 6.75457 12.448 8.2745L12.448 11.8676Z" fill="url(#paint0_linear_562_6801)"/>
<defs>
<linearGradient id="paint0_linear_562_6801" x1="2.34314" y1="2.34314" x2="13.6569" y2="13.6569" gradientUnits="userSpaceOnUse">
<stop stop-color="#2489BE"/>
<stop offset="1" stop-color="#0575B3"/>
</linearGradient>
</defs>
</svg>
