<svg width="14" height="18" viewBox="0 0 14 18" fill="none" xmlns="http://www.w3.org/2000/svg">
<path d="M7 8.85482C7.41667 8.85482 7.77431 8.70551 8.07292 8.4069C8.37153 8.10829 8.52083 7.75065 8.52083 7.33398C8.52083 6.91732 8.37153 6.55968 8.07292 6.26107C7.77431 5.96246 7.41667 5.81315 7 5.81315C6.58333 5.81315 6.22569 5.96246 5.92708 6.26107C5.62847 6.55968 5.47917 6.91732 5.47917 7.33398C5.47917 7.75065 5.62847 8.10829 5.92708 8.4069C6.22569 8.70551 6.58333 8.85482 7 8.85482ZM7 15.4173C8.77778 13.7923 10.0903 12.3166 10.9375 10.9902C11.7847 9.66385 12.2083 8.50065 12.2083 7.50065C12.2083 5.91732 11.7049 4.62565 10.6979 3.62565C9.69097 2.62565 8.45833 2.12565 7 2.12565C5.54167 2.12565 4.30903 2.62565 3.30208 3.62565C2.29514 4.62565 1.79167 5.91732 1.79167 7.50065C1.79167 8.50065 2.22569 9.66037 3.09375 10.9798C3.96181 12.2993 5.26389 13.7784 7 15.4173ZM7 17.2298C6.875 17.2298 6.75347 17.2125 6.63542 17.1777C6.51736 17.143 6.40972 17.084 6.3125 17.0007C4.24306 15.1534 2.69444 13.4486 1.66667 11.8861C0.638889 10.3236 0.125 8.86176 0.125 7.50065C0.125 5.36176 0.815972 3.65343 2.19792 2.37565C3.57986 1.09787 5.18056 0.458984 7 0.458984C8.81944 0.458984 10.4201 1.09787 11.8021 2.37565C13.184 3.65343 13.875 5.36176 13.875 7.50065C13.875 8.86176 13.3611 10.3236 12.3333 11.8861C11.3056 13.4486 9.75694 15.1534 7.6875 17.0007C7.59028 17.084 7.48611 17.143 7.375 17.1777C7.26389 17.2125 7.13889 17.2298 7 17.2298Z" fill="black"/>
</svg>
