<svg width="144" height="28" viewBox="0 0 144 28" fill="none" xmlns="http://www.w3.org/2000/svg">
<path d="M9.614 13.2318C12.7967 13.4958 15.026 14.0238 16.302 14.8158C17.578 15.6078 18.216 16.7297 18.216 18.1818C18.216 18.9591 18.0327 19.6778 17.666 20.3378C17.2993 20.9978 16.7567 21.5624 16.038 22.0318C15.3193 22.5011 14.4173 22.8604 13.332 23.1098C12.2613 23.3738 11.0513 23.5058 9.702 23.5058C8.778 23.5058 7.73667 23.4178 6.578 23.2418C5.41933 23.0804 4.25333 22.7578 3.08 22.2738C1.90667 21.7898 0.88 21.1958 0 20.4918L2.354 17.7198C3.26333 18.4824 4.356 19.0764 5.632 19.5017C6.908 19.9124 8.294 20.1178 9.79 20.1178C12.43 20.1178 13.75 19.6191 13.75 18.6218C13.75 18.1378 13.42 17.7858 12.76 17.5658C12.1147 17.3458 10.978 17.1698 9.35 17.0378C6.29933 16.7738 4.07733 16.2458 2.684 15.4537C1.30533 14.6617 0.616 13.5764 0.616 12.1978C0.616 11.6111 0.755333 11.0171 1.034 10.4158C1.31267 9.79975 1.83333 9.22042 2.596 8.67775C3.35867 8.13508 4.32667 7.73908 5.5 7.48975C6.67333 7.22575 7.86133 7.09375 9.064 7.09375C10.7213 7.09375 12.2833 7.29175 13.75 7.68775C15.2167 8.08375 16.4707 8.64842 17.512 9.38175L15.246 12.1758C13.662 11.0611 11.6013 10.4891 9.064 10.4598C7.81733 10.4598 6.842 10.5844 6.138 10.8338C5.434 11.0684 5.082 11.4058 5.082 11.8458C5.082 12.0951 5.18467 12.3004 5.39 12.4618C5.59533 12.6231 5.93267 12.7624 6.402 12.8798C6.87133 12.9824 7.942 13.0998 9.614 13.2318Z" fill="url(#paint0_linear_1_8294)"/>
<path d="M30.7943 10.8118H35.1283V22.9998H30.7943V21.0638C30.281 21.8118 29.5843 22.3984 28.7043 22.8238C27.8243 23.2344 26.849 23.4398 25.7783 23.4398C24.9277 23.4398 24.1577 23.3078 23.4683 23.0438C22.779 22.7798 22.1997 22.4058 21.7303 21.9218C21.2757 21.4231 20.9237 20.8438 20.6743 20.1838C20.4397 19.5091 20.3223 18.7758 20.3223 17.9838V10.8118H24.6563V17.6978C24.6563 18.4751 24.8763 19.0911 25.3163 19.5458C25.771 19.9858 26.4017 20.2058 27.2083 20.2058C28.7043 20.2058 29.8997 19.4798 30.7943 18.0278V10.8118Z" fill="url(#paint1_linear_1_8294)"/>
<path d="M47.5509 23.4398C46.4803 23.4398 45.5123 23.2418 44.6469 22.8458C43.7816 22.4498 43.0776 21.8997 42.5349 21.1958V27.3997H38.2009V10.8118H42.5349V12.5938C43.0776 11.9044 43.7816 11.3617 44.6469 10.9657C45.5123 10.5551 46.4803 10.3497 47.5509 10.3497C48.4896 10.3497 49.3549 10.5038 50.1469 10.8118C50.9536 11.1051 51.6429 11.5378 52.2149 12.1098C52.7869 12.6818 53.2269 13.3784 53.5349 14.1998C53.8576 15.0211 54.0189 15.9231 54.0189 16.9058C54.0189 17.8884 53.8576 18.7904 53.5349 19.6118C53.2269 20.4184 52.7869 21.1078 52.2149 21.6798C51.6429 22.2518 50.9536 22.6918 50.1469 22.9998C49.3549 23.2931 48.4896 23.4398 47.5509 23.4398ZM46.3409 13.6718C45.5783 13.6718 44.8669 13.8184 44.2069 14.1118C43.5616 14.3904 43.0116 14.8231 42.5569 15.4098V18.3798C43.0116 18.9664 43.5616 19.4064 44.2069 19.6998C44.8669 19.9784 45.5783 20.1178 46.3409 20.1178C47.4703 20.1178 48.3429 19.8391 48.9589 19.2818C49.5896 18.7098 49.9049 17.9178 49.9049 16.9058C49.9049 15.8791 49.5896 15.0871 48.9589 14.5298C48.3429 13.9578 47.4703 13.6718 46.3409 13.6718Z" fill="url(#paint2_linear_1_8294)"/>
<path d="M59.8082 17.8298C59.9842 18.7244 60.4242 19.3844 61.1282 19.8098C61.8469 20.2204 62.8369 20.4258 64.0982 20.4258C64.7875 20.4258 65.4842 20.3451 66.1882 20.1838C66.8922 20.0078 67.6329 19.6264 68.4102 19.0398L70.6102 21.3498C68.9822 22.7871 66.7309 23.5058 63.8562 23.5058C62.5949 23.5058 61.4509 23.3518 60.4242 23.0438C59.3975 22.7504 58.5322 22.3178 57.8282 21.7458C57.1242 21.1591 56.5889 20.4551 56.2222 19.6337C55.8555 18.8124 55.6722 17.9031 55.6722 16.9058C55.6722 15.9084 55.8482 14.9991 56.2002 14.1778C56.5669 13.3564 57.0875 12.6598 57.7622 12.0878C58.4515 11.5011 59.2875 11.0611 60.2702 10.7677C61.2529 10.4598 62.3382 10.3058 63.5262 10.3058C64.6115 10.3058 65.6162 10.4451 66.5402 10.7238C67.4789 11.0024 68.2782 11.4204 68.9382 11.9777C69.6129 12.5204 70.1335 13.2024 70.5002 14.0238C70.8669 14.8451 71.0502 15.7764 71.0502 16.8177C71.0502 17.2871 71.0135 17.6244 70.9402 17.8298H59.8082ZM63.5702 13.3418C62.8809 13.3418 62.2649 13.4444 61.7222 13.6498C61.1942 13.8404 60.7909 14.1118 60.5122 14.4638C60.2335 14.8158 60.0355 15.1604 59.9182 15.4978L67.0462 15.4537C66.5915 14.0457 65.4329 13.3418 63.5702 13.3418Z" fill="url(#paint3_linear_1_8294)"/>
<path d="M77.6404 22.9998H73.3064V10.8118H77.6404V13.0778C78.1244 12.2564 78.8211 11.6258 79.7304 11.1858C80.6397 10.7458 81.6444 10.5258 82.7444 10.5258V14.1338C81.4244 14.1338 80.3171 14.3904 79.4224 14.9038C78.5424 15.4024 77.9484 16.1431 77.6404 17.1258V22.9998Z" fill="url(#paint4_linear_1_8294)"/>
<path d="M101.982 7.59961H106.47V22.9996H101.982V17.0376H92.7419V22.9996H88.2539V7.59961H92.7419V13.3416H101.982V7.59961Z" fill="white"/>
<path d="M114.57 22.9996H110.082V7.59961H114.57V22.9996Z" fill="white"/>
<path d="M122.273 22.9996H117.939V10.8116H122.273V13.0776C122.757 12.2563 123.454 11.6256 124.363 11.1856C125.272 10.7456 126.277 10.5256 127.377 10.5256V14.1336C126.057 14.1336 124.95 14.3903 124.055 14.9036C123.175 15.4023 122.581 16.1429 122.273 17.1256V22.9996Z" fill="white"/>
<path d="M132.392 17.8296C132.568 18.7243 133.008 19.3843 133.712 19.8096C134.431 20.2203 135.421 20.4256 136.682 20.4256C137.371 20.4256 138.068 20.3449 138.772 20.1836C139.476 20.0076 140.217 19.6263 140.994 19.0396L143.194 21.3496C141.566 22.7869 139.315 23.5056 136.44 23.5056C135.179 23.5056 134.035 23.3516 133.008 23.0436C131.981 22.7503 131.116 22.3176 130.412 21.7456C129.708 21.1589 129.173 20.4549 128.806 19.6336C128.439 18.8123 128.256 17.9029 128.256 16.9056C128.256 15.9083 128.432 14.9989 128.784 14.1776C129.151 13.3563 129.671 12.6596 130.346 12.0876C131.035 11.5009 131.871 11.0609 132.854 10.7676C133.837 10.4596 134.922 10.3056 136.11 10.3056C137.195 10.3056 138.2 10.4449 139.124 10.7236C140.063 11.0023 140.862 11.4203 141.522 11.9776C142.197 12.5203 142.717 13.2023 143.084 14.0236C143.451 14.8449 143.634 15.7763 143.634 16.8176C143.634 17.2869 143.597 17.6243 143.524 17.8296H132.392ZM136.154 13.3416C135.465 13.3416 134.849 13.4443 134.306 13.6496C133.778 13.8403 133.375 14.1116 133.096 14.4636C132.817 14.8156 132.619 15.1603 132.502 15.4976L139.63 15.4536C139.175 14.0456 138.017 13.3416 136.154 13.3416Z" fill="white"/>
<path d="M109.45 2.5C109.45 1.11929 110.569 0 111.95 0C113.331 0 114.45 1.11929 114.45 2.5C114.45 3.88071 113.331 5 111.95 5C110.569 5 109.45 3.88071 109.45 2.5Z" fill="white"/>
<path fill-rule="evenodd" clip-rule="evenodd" d="M96.8432 13.5005C94.6763 13.5047 92.5839 13.8745 90.061 14.5518L90.8389 17.4492C93.2245 16.8087 95.0395 16.504 96.8491 16.5005C98.6609 16.4969 100.547 16.7951 103.072 17.4521L103.828 14.5488C101.168 13.8569 99.0081 13.4963 96.8432 13.5005Z" fill="white"/>
<defs>
<linearGradient id="paint0_linear_1_8294" x1="-5" y1="9.5" x2="79.5" y2="27" gradientUnits="userSpaceOnUse">
<stop stop-color="#F6F3FF"/>
<stop offset="1" stop-color="#9D9BFB"/>
</linearGradient>
<linearGradient id="paint1_linear_1_8294" x1="-5" y1="9.5" x2="79.5" y2="27" gradientUnits="userSpaceOnUse">
<stop stop-color="#F6F3FF"/>
<stop offset="1" stop-color="#9D9BFB"/>
</linearGradient>
<linearGradient id="paint2_linear_1_8294" x1="-5" y1="9.5" x2="79.5" y2="27" gradientUnits="userSpaceOnUse">
<stop stop-color="#F6F3FF"/>
<stop offset="1" stop-color="#9D9BFB"/>
</linearGradient>
<linearGradient id="paint3_linear_1_8294" x1="-5" y1="9.5" x2="79.5" y2="27" gradientUnits="userSpaceOnUse">
<stop stop-color="#F6F3FF"/>
<stop offset="1" stop-color="#9D9BFB"/>
</linearGradient>
<linearGradient id="paint4_linear_1_8294" x1="-5" y1="9.5" x2="79.5" y2="27" gradientUnits="userSpaceOnUse">
<stop stop-color="#F6F3FF"/>
<stop offset="1" stop-color="#9D9BFB"/>
</linearGradient>
</defs>
</svg>
