<svg width="20" height="20" viewBox="0 0 20 20" fill="none" xmlns="http://www.w3.org/2000/svg">
<path d="M13.1875 18.1877C13.0764 18.1877 12.9722 18.1668 12.875 18.1252C12.7778 18.0835 12.6875 18.021 12.6042 17.9377L10.25 15.5835C10.0972 15.4307 10.0243 15.2432 10.0312 15.021C10.0382 14.7988 10.1181 14.6113 10.2708 14.4585C10.4375 14.2918 10.6285 14.2085 10.8438 14.2085C11.059 14.2085 11.25 14.2918 11.4167 14.4585L13.1875 16.2293L17.6042 11.8335C17.7708 11.6668 17.9618 11.5835 18.1771 11.5835C18.3924 11.5835 18.5833 11.6668 18.75 11.8335C18.9028 11.9863 18.9792 12.1738 18.9792 12.396C18.9792 12.6182 18.9028 12.8057 18.75 12.9585L13.7708 17.9377C13.6875 18.021 13.5938 18.0835 13.4896 18.1252C13.3854 18.1668 13.2847 18.1877 13.1875 18.1877ZM3.10417 4.68766L9.95833 8.896L16.8125 4.68766H3.10417ZM3.02083 16.7085C2.57639 16.7085 2.19097 16.5453 1.86458 16.2189C1.53819 15.8925 1.375 15.5071 1.375 15.0627V4.68766C1.375 4.22933 1.53819 3.83697 1.86458 3.51058C2.19097 3.18419 2.57639 3.021 3.02083 3.021H16.9167C17.375 3.021 17.7674 3.18419 18.0938 3.51058C18.4201 3.83697 18.5833 4.22933 18.5833 4.68766V9.06266C18.25 9.396 17.9688 9.67377 17.7396 9.896C17.5104 10.1182 17.2361 10.3891 16.9167 10.7085V6.12516L10.375 10.1668C10.3056 10.2085 10.2396 10.2363 10.1771 10.2502C10.1146 10.2641 10.0417 10.271 9.95833 10.271C9.875 10.271 9.80208 10.2641 9.73958 10.2502C9.67708 10.2363 9.61111 10.2085 9.54167 10.1668L3.02083 6.12516V15.0627H7.95833L9.60417 16.7085H3.02083Z" fill="#44B146"/>
</svg>
