<svg width="21" height="21" viewBox="0 0 21 21" fill="none" xmlns="http://www.w3.org/2000/svg">
<path d="M15.0293 7.55469C15.0293 6.22601 14.5015 4.95176 13.562 4.01225C12.6225 3.07273 11.3482 2.54492 10.0195 2.54492C8.69086 2.54492 7.41661 3.07273 6.47709 4.01225C5.53758 4.95176 5.00977 6.22601 5.00977 7.55469C5.00977 13.3994 2.50488 15.0693 2.50488 15.0693H17.5342C17.5342 15.0693 15.0293 13.3994 15.0293 7.55469Z" stroke="#4F5052" stroke-width="1.5" stroke-linecap="round" stroke-linejoin="round"/>
<path d="M11.4627 18.4102C11.3159 18.6632 11.1052 18.8733 10.8517 19.0193C10.5982 19.1653 10.3108 19.2422 10.0182 19.2422C9.72566 19.2422 9.43824 19.1653 9.18473 19.0193C8.93122 18.8733 8.72053 18.6632 8.57373 18.4102" stroke="#4F5052" stroke-width="1.5" stroke-linecap="round" stroke-linejoin="round"/>
</svg>
