<svg width="54" height="54" viewBox="0 0 54 54" fill="none" xmlns="http://www.w3.org/2000/svg"><path d="M49.107 2.7V44.0438H4.89453V11.6438L16.5383 0H46.4914C47.9258 0 49.107 1.26563 49.107 2.7Z" fill="#E2E7E9"/><path d="M14.093 11.6438H4.98047L16.5398 0L16.4555 9.1125C16.5398 10.5469 15.443 11.6438 14.093 11.6438Z" fill="#CED7D7"/><path d="M31.3023 23.6238C28.8555 21.2613 27.0836 18.5613 27.0836 18.5613C27.7586 17.5488 29.3617 11.7269 26.9149 10.0394C24.468 8.35193 23.2023 11.4738 23.2023 11.4738C22.1055 15.3551 24.7211 18.8988 24.7211 18.8988L21.768 25.3957C21.4305 25.3957 12.0648 29.0238 15.2711 33.4957C18.5617 37.9676 23.118 27.1676 23.118 27.1676C24.8899 26.5769 30.2899 25.8176 30.2899 25.8176C32.3992 28.6863 34.9305 29.6144 34.9305 29.6144C38.8117 30.6269 39.2336 27.4207 39.2336 27.4207C39.318 23.2019 31.3023 23.6238 31.3023 23.6238ZM16.8742 31.9769C16.7898 31.9769 16.7898 31.8926 16.7898 31.8926C16.2836 30.7113 20.1648 28.4332 20.1648 28.4332C20.1648 28.4332 18.0555 32.4832 16.8742 31.9769ZM25.6492 11.5582C26.7461 12.5707 25.818 16.0301 25.818 16.0301C25.818 16.0301 24.5523 12.5707 25.6492 11.5582ZM24.6367 24.6363L26.1555 20.9238L28.518 23.7926L24.6367 24.6363ZM37.1242 27.3363C36.4492 28.4332 33.6649 26.0707 33.4117 25.8176C33.8336 25.8176 37.4617 26.0707 37.1242 27.3363ZM49.1055 41.3426V51.2988C49.1055 52.7332 47.9242 53.9988 46.4055 53.9988H7.50859C6.07422 53.9988 4.80859 52.8176 4.80859 51.2988V41.3426H49.1055Z" fill="#F2786B"/><path d="M23.5398 45.7297C23.5398 46.4047 23.2867 46.9109 22.8648 47.3328C22.443 47.6703 21.768 47.8391 20.9242 47.8391H20.2492V50.2859H19.1523V43.7891H21.093C21.9367 43.7891 22.5273 43.9578 22.9492 44.2953C23.3711 44.6328 23.5398 45.0547 23.5398 45.7297ZM20.3336 46.9953H20.9242C21.4305 46.9953 21.8523 46.9109 22.1055 46.7422C22.3586 46.5734 22.5273 46.2359 22.5273 45.8141C22.5273 45.4766 22.443 45.1391 22.1898 44.9703C21.9367 44.8016 21.5992 44.7172 21.093 44.7172H20.3336V46.9953ZM30.2055 46.9953C30.2055 48.0922 29.868 48.9359 29.2773 49.4422C28.6867 50.0328 27.843 50.2859 26.6617 50.2859H24.8055V43.7891H26.8305C27.843 43.7891 28.6867 44.0422 29.2773 44.6328C29.868 45.1391 30.2055 45.9828 30.2055 46.9953ZM29.0242 46.9953C29.0242 45.3922 28.2648 44.6328 26.8305 44.6328H25.9023V49.3578H26.6617C28.2648 49.4422 29.0242 48.5984 29.0242 46.9953ZM32.6523 50.2859H31.5555V43.7891H35.268V44.7172H32.6523V46.7422H35.0992V47.6703H32.6523V50.2859Z" fill="#EFF2F3"/></svg>