<svg width="145" height="28" viewBox="0 0 145 28" fill="none" xmlns="http://www.w3.org/2000/svg">
<path d="M10.1638 13.2318C13.3465 13.4958 15.5758 14.0238 16.8518 14.8158C18.1278 15.6078 18.7658 16.7298 18.7658 18.1818C18.7658 18.9591 18.5825 19.6778 18.2158 20.3378C17.8491 20.9978 17.3065 21.5624 16.5878 22.0318C15.8691 22.5011 14.9671 22.8604 13.8818 23.1098C12.8111 23.3738 11.6011 23.5058 10.2518 23.5058C9.32781 23.5058 8.28647 23.4178 7.1278 23.2418C5.96914 23.0804 4.80314 22.7578 3.6298 22.2738C2.45647 21.7898 1.4298 21.1958 0.549805 20.4918L2.9038 17.7198C3.81314 18.4824 4.9058 19.0764 6.1818 19.5017C7.4578 19.9124 8.8438 20.1178 10.3398 20.1178C12.9798 20.1178 14.2998 19.6191 14.2998 18.6218C14.2998 18.1378 13.9698 17.7858 13.3098 17.5658C12.6645 17.3458 11.5278 17.1698 9.89981 17.0378C6.84914 16.7738 4.62714 16.2457 3.2338 15.4537C1.85514 14.6617 1.1658 13.5764 1.1658 12.1978C1.1658 11.6111 1.30514 11.0171 1.5838 10.4158C1.86247 9.79975 2.38314 9.22042 3.1458 8.67775C3.90847 8.13508 4.87647 7.73908 6.0498 7.48975C7.22314 7.22575 8.41114 7.09375 9.6138 7.09375C11.2711 7.09375 12.8331 7.29175 14.2998 7.68775C15.7665 8.08375 17.0205 8.64842 18.0618 9.38175L15.7958 12.1758C14.2118 11.0611 12.1511 10.4891 9.6138 10.4598C8.36714 10.4598 7.39181 10.5844 6.68781 10.8338C5.98381 11.0684 5.6318 11.4058 5.6318 11.8458C5.6318 12.0951 5.73447 12.3004 5.9398 12.4618C6.14514 12.6231 6.48247 12.7624 6.9518 12.8798C7.42114 12.9824 8.49181 13.0998 10.1638 13.2318Z" fill="#613DE4"/>
<path d="M31.3441 10.8118H35.6781V22.9998H31.3441V21.0638C30.8308 21.8118 30.1341 22.3984 29.2541 22.8238C28.3741 23.2344 27.3988 23.4398 26.3281 23.4398C25.4775 23.4398 24.7075 23.3078 24.0181 23.0438C23.3288 22.7798 22.7495 22.4058 22.2801 21.9218C21.8255 21.4231 21.4735 20.8438 21.2241 20.1838C20.9895 19.5091 20.8721 18.7758 20.8721 17.9838V10.8118H25.2061V17.6978C25.2061 18.4751 25.4261 19.0911 25.8661 19.5458C26.3208 19.9858 26.9515 20.2058 27.7581 20.2058C29.2541 20.2058 30.4495 19.4798 31.3441 18.0278V10.8118Z" fill="#613DE4"/>
<path d="M48.1007 23.4398C47.0301 23.4398 46.0621 23.2418 45.1967 22.8458C44.3314 22.4498 43.6274 21.8998 43.0847 21.1958V27.3997H38.7507V10.8118H43.0847V12.5938C43.6274 11.9044 44.3314 11.3617 45.1967 10.9657C46.0621 10.5551 47.0301 10.3497 48.1007 10.3497C49.0394 10.3497 49.9047 10.5037 50.6967 10.8118C51.5034 11.1051 52.1927 11.5378 52.7647 12.1098C53.3367 12.6818 53.7767 13.3784 54.0847 14.1998C54.4074 15.0211 54.5687 15.9231 54.5687 16.9058C54.5687 17.8884 54.4074 18.7904 54.0847 19.6118C53.7767 20.4184 53.3367 21.1078 52.7647 21.6798C52.1927 22.2518 51.5034 22.6918 50.6967 22.9998C49.9047 23.2931 49.0394 23.4398 48.1007 23.4398ZM46.8907 13.6718C46.1281 13.6718 45.4167 13.8184 44.7567 14.1118C44.1114 14.3904 43.5614 14.8231 43.1067 15.4098V18.3798C43.5614 18.9664 44.1114 19.4064 44.7567 19.6998C45.4167 19.9784 46.1281 20.1178 46.8907 20.1178C48.0201 20.1178 48.8927 19.8391 49.5087 19.2818C50.1394 18.7098 50.4547 17.9178 50.4547 16.9058C50.4547 15.8791 50.1394 15.0871 49.5087 14.5298C48.8927 13.9578 48.0201 13.6718 46.8907 13.6718Z" fill="#613DE4"/>
<path d="M60.358 17.8298C60.534 18.7244 60.974 19.3844 61.678 19.8098C62.3967 20.2204 63.3867 20.4258 64.648 20.4258C65.3373 20.4258 66.034 20.3451 66.738 20.1838C67.442 20.0078 68.1827 19.6264 68.96 19.0398L71.16 21.3498C69.532 22.7871 67.2807 23.5058 64.406 23.5058C63.1447 23.5058 62.0007 23.3518 60.974 23.0438C59.9473 22.7504 59.082 22.3178 58.378 21.7458C57.674 21.1591 57.1387 20.4551 56.772 19.6337C56.4053 18.8124 56.222 17.9031 56.222 16.9058C56.222 15.9084 56.398 14.9991 56.75 14.1778C57.1167 13.3564 57.6373 12.6598 58.312 12.0878C59.0013 11.5011 59.8373 11.0611 60.82 10.7677C61.8027 10.4598 62.888 10.3058 64.076 10.3058C65.1613 10.3058 66.166 10.4451 67.09 10.7238C68.0287 11.0024 68.828 11.4204 69.488 11.9777C70.1627 12.5204 70.6833 13.2024 71.05 14.0238C71.4167 14.8451 71.6 15.7764 71.6 16.8177C71.6 17.2871 71.5633 17.6244 71.49 17.8298H60.358ZM64.12 13.3418C63.4307 13.3418 62.8147 13.4444 62.272 13.6498C61.744 13.8404 61.3407 14.1118 61.062 14.4638C60.7833 14.8158 60.5853 15.1604 60.468 15.4978L67.596 15.4537C67.1413 14.0457 65.9827 13.3418 64.12 13.3418Z" fill="#613DE4"/>
<path d="M78.1902 22.9998H73.8562V10.8118H78.1902V13.0778C78.6742 12.2564 79.3709 11.6258 80.2802 11.1858C81.1895 10.7458 82.1942 10.5258 83.2942 10.5258V14.1338C81.9742 14.1338 80.8669 14.3904 79.9722 14.9038C79.0922 15.4024 78.4982 16.1431 78.1902 17.1258V22.9998Z" fill="#613DE4"/>
<path d="M102.532 7.59961H107.02V22.9996H102.532V17.0376H93.2917V22.9996H88.8037V7.59961H93.2917V13.3416H102.532V7.59961Z" fill="black"/>
<path d="M115.12 22.9996H110.632V7.59961H115.12V22.9996Z" fill="black"/>
<path d="M122.823 22.9996H118.489V10.8116H122.823V13.0776C123.307 12.2563 124.004 11.6256 124.913 11.1856C125.822 10.7456 126.827 10.5256 127.927 10.5256V14.1336C126.607 14.1336 125.5 14.3903 124.605 14.9036C123.725 15.4023 123.131 16.1429 122.823 17.1256V22.9996Z" fill="black"/>
<path d="M132.942 17.8296C133.118 18.7243 133.558 19.3843 134.262 19.8096C134.981 20.2203 135.971 20.4256 137.232 20.4256C137.921 20.4256 138.618 20.3449 139.322 20.1836C140.026 20.0076 140.767 19.6263 141.544 19.0396L143.744 21.3496C142.116 22.7869 139.865 23.5056 136.99 23.5056C135.729 23.5056 134.585 23.3516 133.558 23.0436C132.531 22.7503 131.666 22.3176 130.962 21.7456C130.258 21.1589 129.723 20.4549 129.356 19.6336C128.989 18.8123 128.806 17.9029 128.806 16.9056C128.806 15.9083 128.982 14.9989 129.334 14.1776C129.701 13.3563 130.221 12.6596 130.896 12.0876C131.585 11.5009 132.421 11.0609 133.404 10.7676C134.387 10.4596 135.472 10.3056 136.66 10.3056C137.745 10.3056 138.75 10.4449 139.674 10.7236C140.613 11.0023 141.412 11.4203 142.072 11.9776C142.747 12.5203 143.267 13.2023 143.634 14.0236C144.001 14.8449 144.184 15.7763 144.184 16.8176C144.184 17.2869 144.147 17.6243 144.074 17.8296H132.942ZM136.704 13.3416C136.015 13.3416 135.399 13.4443 134.856 13.6496C134.328 13.8403 133.925 14.1116 133.646 14.4636C133.367 14.8156 133.169 15.1603 133.052 15.4976L140.18 15.4536C139.725 14.0456 138.567 13.3416 136.704 13.3416Z" fill="black"/>
<path d="M110 2.5C110 1.11929 111.119 0 112.5 0V0C113.881 0 115 1.11929 115 2.5V2.5C115 3.88071 113.881 5 112.5 5V5C111.119 5 110 3.88071 110 2.5V2.5Z" fill="#613DE4"/>
<path fill-rule="evenodd" clip-rule="evenodd" d="M97.3931 13.5005C95.2261 13.5047 93.1337 13.8745 90.6108 14.5518L91.3887 17.4492C93.7743 16.8087 95.5893 16.504 97.3989 16.5005C99.2107 16.4969 101.096 16.7951 103.622 17.4521L104.377 14.5488C101.718 13.8569 99.5579 13.4963 97.3931 13.5005Z" fill="black"/>
</svg>
