<svg width="36" height="36" viewBox="0 0 36 36" fill="none" xmlns="http://www.w3.org/2000/svg">
<path d="M24.001 24L18.001 18L12.001 24" stroke="#006DF9" stroke-width="2" stroke-linecap="round" stroke-linejoin="round"/>
<path d="M17.9995 18V31.5" stroke="#006DF9" stroke-width="2" stroke-linecap="round" stroke-linejoin="round"/>
<path d="M30.5827 27.5833C32.0457 26.7857 33.2015 25.5236 33.8676 23.9962C34.5336 22.4688 34.6721 20.7631 34.2611 19.1483C33.85 17.5335 32.913 16.1015 31.5977 15.0784C30.2825 14.0553 28.664 13.4994 26.9977 13.4983H25.1077C24.6537 11.7421 23.8075 10.1118 22.6327 8.72976C21.4578 7.34774 19.985 6.25004 18.3249 5.51918C16.6648 4.78831 14.8606 4.44331 13.0479 4.51009C11.2353 4.57688 9.46134 5.05372 7.85951 5.90477C6.25767 6.75581 4.86961 7.95892 3.79968 9.42364C2.72974 10.8884 2.00578 12.5766 1.68221 14.3614C1.35865 16.1461 1.4439 17.9811 1.93156 19.7282C2.41923 21.4753 3.29661 23.0891 4.49774 24.4483" stroke="#006DF9" stroke-width="2" stroke-linecap="round" stroke-linejoin="round"/>
<path d="M24.001 24L18.001 18L12.001 24" stroke="#006DF9" stroke-width="2" stroke-linecap="round" stroke-linejoin="round"/>
</svg>
