<svg width="145" height="33" viewBox="0 0 145 33" fill="none" xmlns="http://www.w3.org/2000/svg">
<path d="M10.164 14.232C13.3467 14.496 15.576 15.024 16.852 15.816C18.128 16.608 18.766 17.73 18.766 19.182C18.766 19.9593 18.5827 20.678 18.216 21.338C17.8493 21.998 17.3067 22.5627 16.588 23.032C15.8693 23.5013 14.9673 23.8607 13.882 24.11C12.8113 24.374 11.6013 24.506 10.252 24.506C9.328 24.506 8.28667 24.418 7.128 24.242C5.96933 24.0807 4.80333 23.758 3.63 23.274C2.45667 22.79 1.43 22.196 0.55 21.492L2.904 18.72C3.81333 19.4827 4.906 20.0767 6.182 20.502C7.458 20.9127 8.844 21.118 10.34 21.118C12.98 21.118 14.3 20.6193 14.3 19.622C14.3 19.138 13.97 18.786 13.31 18.566C12.6647 18.346 11.528 18.17 9.9 18.038C6.84933 17.774 4.62733 17.246 3.234 16.454C1.85533 15.662 1.166 14.5767 1.166 13.198C1.166 12.6113 1.30533 12.0173 1.584 11.416C1.86267 10.8 2.38333 10.2207 3.146 9.678C3.90867 9.13533 4.87667 8.73933 6.05 8.49C7.22333 8.226 8.41133 8.094 9.614 8.094C11.2713 8.094 12.8333 8.292 14.3 8.688C15.7667 9.084 17.0207 9.64867 18.062 10.382L15.796 13.176C14.212 12.0613 12.1513 11.4893 9.614 11.46C8.36733 11.46 7.392 11.5847 6.688 11.834C5.984 12.0687 5.632 12.406 5.632 12.846C5.632 13.0953 5.73467 13.3007 5.94 13.462C6.14533 13.6233 6.48267 13.7627 6.952 13.88C7.42133 13.9827 8.492 14.1 10.164 14.232ZM31.3443 11.812H35.6783V24H31.3443V22.064C30.831 22.812 30.1343 23.3987 29.2543 23.824C28.3743 24.2347 27.399 24.44 26.3283 24.44C25.4777 24.44 24.7077 24.308 24.0183 24.044C23.329 23.78 22.7497 23.406 22.2803 22.922C21.8257 22.4233 21.4737 21.844 21.2243 21.184C20.9897 20.5093 20.8723 19.776 20.8723 18.984V11.812H25.2063V18.698C25.2063 19.4753 25.4263 20.0913 25.8663 20.546C26.321 20.986 26.9517 21.206 27.7583 21.206C29.2543 21.206 30.4497 20.48 31.3443 19.028V11.812ZM48.1009 24.44C47.0303 24.44 46.0623 24.242 45.1969 23.846C44.3316 23.45 43.6276 22.9 43.0849 22.196V28.4H38.7509V11.812H43.0849V13.594C43.6276 12.9047 44.3316 12.362 45.1969 11.966C46.0623 11.5553 47.0303 11.35 48.1009 11.35C49.0396 11.35 49.9049 11.504 50.6969 11.812C51.5036 12.1053 52.1929 12.538 52.7649 13.11C53.3369 13.682 53.7769 14.3787 54.0849 15.2C54.4076 16.0213 54.5689 16.9233 54.5689 17.906C54.5689 18.8887 54.4076 19.7907 54.0849 20.612C53.7769 21.4187 53.3369 22.108 52.7649 22.68C52.1929 23.252 51.5036 23.692 50.6969 24C49.9049 24.2933 49.0396 24.44 48.1009 24.44ZM46.8909 14.672C46.1283 14.672 45.4169 14.8187 44.7569 15.112C44.1116 15.3907 43.5616 15.8233 43.1069 16.41V19.38C43.5616 19.9667 44.1116 20.4067 44.7569 20.7C45.4169 20.9787 46.1283 21.118 46.8909 21.118C48.0203 21.118 48.8929 20.8393 49.5089 20.282C50.1396 19.71 50.4549 18.918 50.4549 17.906C50.4549 16.8793 50.1396 16.0873 49.5089 15.53C48.8929 14.958 48.0203 14.672 46.8909 14.672ZM60.3582 18.83C60.5342 19.7247 60.9742 20.3847 61.6782 20.81C62.3969 21.2207 63.3869 21.426 64.6482 21.426C65.3375 21.426 66.0342 21.3453 66.7382 21.184C67.4422 21.008 68.1829 20.6267 68.9602 20.04L71.1602 22.35C69.5322 23.7873 67.2809 24.506 64.4062 24.506C63.1449 24.506 62.0009 24.352 60.9742 24.044C59.9475 23.7507 59.0822 23.318 58.3782 22.746C57.6742 22.1593 57.1389 21.4553 56.7722 20.634C56.4055 19.8127 56.2222 18.9033 56.2222 17.906C56.2222 16.9087 56.3982 15.9993 56.7502 15.178C57.1169 14.3567 57.6375 13.66 58.3122 13.088C59.0015 12.5013 59.8375 12.0613 60.8202 11.768C61.8029 11.46 62.8882 11.306 64.0762 11.306C65.1615 11.306 66.1662 11.4453 67.0902 11.724C68.0289 12.0027 68.8282 12.4207 69.4882 12.978C70.1629 13.5207 70.6835 14.2027 71.0502 15.024C71.4169 15.8453 71.6002 16.7767 71.6002 17.818C71.6002 18.2873 71.5635 18.6247 71.4902 18.83H60.3582ZM64.1202 14.342C63.4309 14.342 62.8149 14.4447 62.2722 14.65C61.7442 14.8407 61.3409 15.112 61.0622 15.464C60.7835 15.816 60.5855 16.1607 60.4682 16.498L67.5962 16.454C67.1415 15.046 65.9829 14.342 64.1202 14.342ZM78.1904 24H73.8564V11.812H78.1904V14.078C78.6744 13.2567 79.3711 12.626 80.2804 12.186C81.1897 11.746 82.1944 11.526 83.2944 11.526V15.134C81.9744 15.134 80.8671 15.3907 79.9724 15.904C79.0924 16.4027 78.4984 17.1433 78.1904 18.126V24Z" fill="#613DE4"/>
<path d="M102.532 8.6H107.02V24H102.532V18.038H93.292V24H88.804V8.6H93.292V14.342H102.532V8.6ZM115.12 24H110.632V8.6H115.12V24ZM122.823 24H118.489V11.812H122.823V14.078C123.307 13.2567 124.004 12.626 124.913 12.186C125.823 11.746 126.827 11.526 127.927 11.526V15.134C126.607 15.134 125.5 15.3907 124.605 15.904C123.725 16.4027 123.131 17.1433 122.823 18.126V24ZM132.942 18.83C133.118 19.7247 133.558 20.3847 134.262 20.81C134.981 21.2207 135.971 21.426 137.232 21.426C137.922 21.426 138.618 21.3453 139.322 21.184C140.026 21.008 140.767 20.6267 141.544 20.04L143.744 22.35C142.116 23.7873 139.865 24.506 136.99 24.506C135.729 24.506 134.585 24.352 133.558 24.044C132.532 23.7507 131.666 23.318 130.962 22.746C130.258 22.1593 129.723 21.4553 129.356 20.634C128.99 19.8127 128.806 18.9033 128.806 17.906C128.806 16.9087 128.982 15.9993 129.334 15.178C129.701 14.3567 130.222 13.66 130.896 13.088C131.586 12.5013 132.422 12.0613 133.404 11.768C134.387 11.46 135.472 11.306 136.66 11.306C137.746 11.306 138.75 11.4453 139.674 11.724C140.613 12.0027 141.412 12.4207 142.072 12.978C142.747 13.5207 143.268 14.2027 143.634 15.024C144.001 15.8453 144.184 16.7767 144.184 17.818C144.184 18.2873 144.148 18.6247 144.074 18.83H132.942ZM136.704 14.342C136.015 14.342 135.399 14.4447 134.856 14.65C134.328 14.8407 133.925 15.112 133.646 15.464C133.368 15.816 133.17 16.1607 133.052 16.498L140.18 16.454C139.726 15.046 138.567 14.342 136.704 14.342Z" fill="black"/>
<rect x="110" y="1" width="5" height="5" rx="2.5" fill="#613DE4"/>
<rect x="89" y="26" width="5" height="5" rx="2.5" fill="#613DE4"/>
<rect x="102" y="26" width="5" height="5" rx="2.5" fill="#613DE4"/>
<path d="M93.5 14L102.5 13.5V19.5H93.5V14Z" fill="white"/>
<path d="M91 17C95.9085 15.6823 98.8148 15.6511 104 17" stroke="black" stroke-width="3"/>
</svg>
