<svg width="16" height="16" viewBox="0 0 16 16" fill="none" xmlns="http://www.w3.org/2000/svg">
<path d="M2.41676 14.2671C2.06121 14.2671 1.75288 14.1365 1.49176 13.8754C1.23065 13.6143 1.1001 13.3004 1.1001 12.9337V5.10039C1.1001 4.74483 1.23065 4.4365 1.49176 4.17539C1.75288 3.91428 2.06121 3.78372 2.41676 3.78372H5.11676V2.23372C5.11676 1.86706 5.24732 1.55317 5.50843 1.29206C5.76954 1.03095 6.07787 0.900391 6.43343 0.900391H9.56676C9.92232 0.900391 10.2307 1.03095 10.4918 1.29206C10.7529 1.55317 10.8834 1.86706 10.8834 2.23372V3.78372H13.5834C13.9501 3.78372 14.264 3.91428 14.5251 4.17539C14.7862 4.4365 14.9168 4.74483 14.9168 5.10039V12.9337C14.9168 13.3004 14.7862 13.6143 14.5251 13.8754C14.264 14.1365 13.9501 14.2671 13.5834 14.2671H2.41676ZM2.41676 12.9337H13.5834V5.10039H2.41676V12.9337ZM6.43343 3.78372H9.56676V2.23372H6.43343V3.78372ZM2.41676 12.9337V5.10039V12.9337Z" fill="white"/>
</svg>
