<svg width="16" height="16" viewBox="0 0 16 16" fill="none" xmlns="http://www.w3.org/2000/svg">
<path d="M2.41628 14.2671C2.06072 14.2671 1.75239 14.1365 1.49128 13.8754C1.23016 13.6143 1.09961 13.3004 1.09961 12.9337V5.10039C1.09961 4.74483 1.23016 4.4365 1.49128 4.17539C1.75239 3.91428 2.06072 3.78372 2.41628 3.78372H5.11628V2.23372C5.11628 1.86706 5.24683 1.55317 5.50794 1.29206C5.76905 1.03095 6.07739 0.900391 6.43294 0.900391H9.56628C9.92183 0.900391 10.2302 1.03095 10.4913 1.29206C10.7524 1.55317 10.8829 1.86706 10.8829 2.23372V3.78372H13.5829C13.9496 3.78372 14.2635 3.91428 14.5246 4.17539C14.7857 4.4365 14.9163 4.74483 14.9163 5.10039V12.9337C14.9163 13.3004 14.7857 13.6143 14.5246 13.8754C14.2635 14.1365 13.9496 14.2671 13.5829 14.2671H2.41628ZM2.41628 12.9337H13.5829V5.10039H2.41628V12.9337ZM6.43294 3.78372H9.56628V2.23372H6.43294V3.78372ZM2.41628 12.9337V5.10039V12.9337Z" fill="#777E85"/>
</svg>
