<svg width="12" height="12" viewBox="0 0 12 12" fill="none" xmlns="http://www.w3.org/2000/svg">
<path d="M2.3127 11.175C2.04603 11.175 1.81478 11.0771 1.61895 10.8813C1.42311 10.6854 1.3252 10.4542 1.3252 10.1875V2.5625C1.3252 2.2875 1.42311 2.05208 1.61895 1.85625C1.81478 1.66042 2.04603 1.5625 2.3127 1.5625H3.0627V0.8125H4.0002V1.5625H8.0002V0.8125H8.9377V1.5625H9.6877C9.9627 1.5625 10.1981 1.66042 10.3939 1.85625C10.5898 2.05208 10.6877 2.2875 10.6877 2.5625V10.1875C10.6877 10.4542 10.5898 10.6854 10.3939 10.8813C10.1981 11.0771 9.9627 11.175 9.6877 11.175H2.3127ZM2.3127 10.1875H9.6877V4.875H2.3127V10.1875ZM2.3127 4.125H9.6877V2.5625H2.3127V4.125ZM2.3127 4.125V2.5625V4.125Z" fill="#777E85"/>
</svg>
