<svg width="16" height="16" viewBox="0 0 16 16" fill="none" xmlns="http://www.w3.org/2000/svg">
<path d="M10.6665 2.66406H11.9998C12.3535 2.66406 12.6926 2.80454 12.9426 3.05459C13.1927 3.30464 13.3332 3.64377 13.3332 3.9974V13.3307C13.3332 13.6844 13.1927 14.0235 12.9426 14.2735C12.6926 14.5236 12.3535 14.6641 11.9998 14.6641H3.99984C3.64622 14.6641 3.30708 14.5236 3.05703 14.2735C2.80698 14.0235 2.6665 13.6844 2.6665 13.3307V3.9974C2.6665 3.64377 2.80698 3.30464 3.05703 3.05459C3.30708 2.80454 3.64622 2.66406 3.99984 2.66406H5.33317" stroke="#5A43FF" stroke-linecap="round" stroke-linejoin="round"/>
<path d="M10.0002 1.33594H6.00016C5.63197 1.33594 5.3335 1.63441 5.3335 2.0026V3.33594C5.3335 3.70413 5.63197 4.0026 6.00016 4.0026H10.0002C10.3684 4.0026 10.6668 3.70413 10.6668 3.33594V2.0026C10.6668 1.63441 10.3684 1.33594 10.0002 1.33594Z" stroke="#5A43FF" stroke-linecap="round" stroke-linejoin="round"/>
</svg>
