<svg width="54" height="54" viewBox="0 0 54 54" fill="none" xmlns="http://www.w3.org/2000/svg">
<path d="M49.107 2.7V44.0438H4.89453V11.6438L16.5383 0H46.4914C47.9258 0 49.107 1.26563 49.107 2.7Z" fill="#E2E7E9"/>
<path d="M14.093 11.6438H4.98047L16.5398 0L16.4555 9.1125C16.5398 10.5469 15.443 11.6438 14.093 11.6438Z" fill="#CED7D7"/>
<path d="M49.1055 41.3418V51.298C49.1055 52.7324 47.9242 53.998 46.4055 53.998H7.50859C6.07422 53.998 4.80859 52.8168 4.80859 51.298V41.3418H49.1055Z" fill="#185ABD"/>
<path d="M17.2091 51.1108C17.5941 51.1108 17.9241 50.7808 17.9241 50.3958C17.9241 50.0108 17.5941 49.6808 17.2091 49.6808C16.8241 49.6808 16.4941 50.0108 16.4941 50.3958C16.4941 50.7808 16.8241 51.1108 17.2091 51.1108Z" fill="white"/>
<path d="M23.1461 51.0008H24.2461V43.3008H23.1461V46.4908C23.0361 46.3258 22.8931 46.1828 22.7171 46.0508C22.4201 45.8308 21.9581 45.6108 21.3311 45.6108C20.0111 45.6108 18.8561 46.7658 18.8561 48.3608C18.8561 49.9558 20.0111 51.1108 21.3311 51.1108C21.9581 51.1108 22.4201 50.8908 22.7171 50.6708C22.8931 50.5388 23.0361 50.3958 23.1461 50.2308V51.0008ZM21.5511 50.0658C20.6711 50.0658 19.9561 49.3618 19.9561 48.3608C19.9561 47.3598 20.6711 46.6558 21.5511 46.6558C22.4311 46.6558 23.1461 47.3598 23.1461 48.3608C23.1461 49.3618 22.4311 50.0658 21.5511 50.0658Z" fill="white"/>
<path d="M25.5163 48.3608C25.5163 49.9008 26.7263 51.1108 28.2663 51.1108C29.8063 51.1108 31.0163 49.9008 31.0163 48.3608C31.0163 46.8208 29.8063 45.6108 28.2663 45.6108C26.7263 45.6108 25.5163 46.8208 25.5163 48.3608ZM28.2663 50.0658C27.3313 50.0658 26.6163 49.3618 26.6163 48.3608C26.6163 47.3598 27.3313 46.6558 28.2663 46.6558C29.2013 46.6558 29.9163 47.3598 29.9163 48.3608C29.9163 49.3618 29.2013 50.0658 28.2663 50.0658Z" fill="white"/>
<path d="M36.1321 49.2958C36.0111 49.4388 35.8791 49.5708 35.7361 49.6808C35.4831 49.8898 35.1201 50.0658 34.6471 50.0658C33.7121 50.0658 32.9971 49.3618 32.9971 48.3608C32.9971 47.3598 33.7121 46.6558 34.6471 46.6558C35.1201 46.6558 35.4611 46.8428 35.7141 47.0188C35.8571 47.1178 35.9781 47.2388 36.0771 47.3708L36.8471 46.6558C36.7041 46.4688 36.5171 46.2928 36.3081 46.1388C35.9451 45.8748 35.3951 45.6108 34.6471 45.6108C33.1071 45.6108 31.8971 46.8208 31.8971 48.3608C31.8971 49.9008 33.1071 51.1108 34.6471 51.1108C35.3951 51.1108 35.9451 50.8358 36.3301 50.5608C36.5501 50.3958 36.7371 50.2198 36.9021 50.0108L36.1321 49.2958Z" fill="white"/>
<rect x="12" y="15" width="31" height="3" rx="1.5" fill="#185ABD"/>
<rect x="12" y="22" width="31" height="3" rx="1.5" fill="#185ABD"/>
<rect x="12" y="29" width="25" height="3" rx="1.5" fill="#185ABD"/>
</svg>
