<svg width="54" height="54" viewBox="0 0 54 54" fill="none" xmlns="http://www.w3.org/2000/svg">
<path d="M49.107 2.7V44.0438H4.89453V11.6438L16.5383 0H46.4914C47.9258 0 49.107 1.26563 49.107 2.7Z" fill="#E2E7E9"/>
<path d="M14.093 11.6438H4.98047L16.5398 0L16.4555 9.1125C16.5398 10.5469 15.443 11.6438 14.093 11.6438Z" fill="#CED7D7"/>
<path d="M49.1055 41.3418V51.298C49.1055 52.7324 47.9242 53.998 46.4055 53.998H7.50859C6.07422 53.998 4.80859 52.8168 4.80859 51.298V41.3418H49.1055Z" fill="#185ABD"/>
<path d="M15.2091 51.1108C15.5941 51.1108 15.9241 50.7808 15.9241 50.3958C15.9241 50.0108 15.5941 49.6808 15.2091 49.6808C14.8241 49.6808 14.4941 50.0108 14.4941 50.3958C14.4941 50.7808 14.8241 51.1108 15.2091 51.1108Z" fill="white"/>
<path d="M21.1461 51.0008H22.2461V43.3008H21.1461V46.4908C21.0361 46.3258 20.8931 46.1828 20.7171 46.0508C20.4201 45.8308 19.9581 45.6108 19.3311 45.6108C18.0111 45.6108 16.8561 46.7658 16.8561 48.3608C16.8561 49.9558 18.0111 51.1108 19.3311 51.1108C19.9581 51.1108 20.4201 50.8908 20.7171 50.6708C20.8931 50.5388 21.0361 50.3958 21.1461 50.2308V51.0008ZM19.5511 50.0658C18.6711 50.0658 17.9561 49.3618 17.9561 48.3608C17.9561 47.3598 18.6711 46.6558 19.5511 46.6558C20.4311 46.6558 21.1461 47.3598 21.1461 48.3608C21.1461 49.3618 20.4311 50.0658 19.5511 50.0658Z" fill="white"/>
<path d="M23.5163 48.3608C23.5163 49.9008 24.7263 51.1108 26.2663 51.1108C27.8063 51.1108 29.0163 49.9008 29.0163 48.3608C29.0163 46.8208 27.8063 45.6108 26.2663 45.6108C24.7263 45.6108 23.5163 46.8208 23.5163 48.3608ZM26.2663 50.0658C25.3313 50.0658 24.6163 49.3618 24.6163 48.3608C24.6163 47.3598 25.3313 46.6558 26.2663 46.6558C27.2013 46.6558 27.9163 47.3598 27.9163 48.3608C27.9163 49.3618 27.2013 50.0658 26.2663 50.0658Z" fill="white"/>
<path d="M34.1321 49.2958C34.0111 49.4388 33.8791 49.5708 33.7361 49.6808C33.4831 49.8898 33.1201 50.0658 32.6471 50.0658C31.7121 50.0658 30.9971 49.3618 30.9971 48.3608C30.9971 47.3598 31.7121 46.6558 32.6471 46.6558C33.1201 46.6558 33.4611 46.8428 33.7141 47.0188C33.8571 47.1178 33.9781 47.2388 34.0771 47.3708L34.8471 46.6558C34.7041 46.4688 34.5171 46.2928 34.3081 46.1388C33.9451 45.8748 33.3951 45.6108 32.6471 45.6108C31.1071 45.6108 29.8971 46.8208 29.8971 48.3608C29.8971 49.9008 31.1071 51.1108 32.6471 51.1108C33.3951 51.1108 33.9451 50.8358 34.3301 50.5608C34.5501 50.3958 34.7371 50.2198 34.9021 50.0108L34.1321 49.2958Z" fill="white"/>
<path d="M35.282 51.0008H36.547L37.922 49.0758L39.297 51.0008H40.562L38.582 48.2508L40.397 45.7208H39.132L37.922 47.4258L36.712 45.7208H35.447L37.262 48.2508L35.282 51.0008Z" fill="white"/>
<rect x="12" y="15" width="31" height="3" rx="1.5" fill="#185ABD"/>
<rect x="12" y="22" width="31" height="3" rx="1.5" fill="#185ABD"/>
<rect x="12" y="29" width="25" height="3" rx="1.5" fill="#185ABD"/>
</svg>
