<svg width="16" height="16" viewBox="0 0 16 16" fill="none" xmlns="http://www.w3.org/2000/svg">
<path d="M3.06686 13.02H3.68353L11.0002 5.68667L10.3669 5.07001L3.06686 12.3867V13.02ZM13.2669 4.98667L11.0835 2.80334L11.7502 2.13667C11.9613 1.92556 12.2196 1.82278 12.5252 1.82834C12.8308 1.83389 13.0946 1.94223 13.3169 2.15334L13.9502 2.77001C14.1724 2.99223 14.2752 3.25334 14.2585 3.55334C14.2419 3.85334 14.128 4.10889 13.9169 4.32001L13.2669 4.98667ZM2.61686 14.12C2.42797 14.12 2.26964 14.0561 2.14186 13.9283C2.01408 13.8006 1.9502 13.6422 1.9502 13.4533V12.22C1.9502 12.1311 1.96686 12.0478 2.0002 11.97C2.03353 11.8922 2.08353 11.82 2.1502 11.7533L10.3835 3.50334L12.5669 5.67001L4.33353 13.92C4.26686 13.9867 4.19186 14.0367 4.10853 14.07C4.0252 14.1033 3.93908 14.12 3.8502 14.12H2.61686ZM10.7002 5.37001L10.3669 5.07001L11.0002 5.68667L10.7002 5.37001Z" fill="#5A43FF"/>
</svg>
