<svg width="20" height="20" viewBox="0 0 20 20" fill="none" xmlns="http://www.w3.org/2000/svg">
<circle cx="10" cy="10" r="10" fill="#44B146"/>
<path d="M8.72502 12.9C8.65836 12.9 8.59586 12.8875 8.53752 12.8625C8.47919 12.8375 8.42502 12.8 8.37502 12.75L6.11252 10.4875C6.01252 10.3875 5.96252 10.2667 5.96252 10.125C5.96252 9.98335 6.01252 9.86251 6.11252 9.76251C6.21252 9.66251 6.33127 9.61251 6.46877 9.61251C6.60627 9.61251 6.72502 9.66251 6.82502 9.76251L8.72502 11.6625L13.175 7.22501C13.2667 7.12501 13.3813 7.07501 13.5188 7.07501C13.6563 7.07501 13.775 7.12501 13.875 7.22501C13.975 7.32501 14.025 7.44585 14.025 7.58751C14.025 7.72918 13.975 7.84585 13.875 7.93751L9.07502 12.75C9.02502 12.8 8.97086 12.8375 8.91252 12.8625C8.85419 12.8875 8.79169 12.9 8.72502 12.9Z" fill="white"/>
</svg>
