<svg width="16" height="16" viewBox="0 0 16 16" fill="none" xmlns="http://www.w3.org/2000/svg">
<path d="M1.08366 13.6828C0.89477 13.6828 0.736437 13.6217 0.608659 13.4995C0.480881 13.3773 0.416992 13.2217 0.416992 13.0328V11.8661C0.416992 11.4328 0.528103 11.0411 0.750326 10.6911C0.972548 10.3411 1.28366 10.0773 1.68366 9.89948C2.50588 9.54392 3.25033 9.28559 3.91699 9.12448C4.58366 8.96337 5.27255 8.88281 5.98366 8.88281C6.70588 8.88281 7.39755 8.96059 8.05866 9.11615C8.71977 9.2717 9.46144 9.53281 10.2837 9.89948C10.6725 10.0661 10.9837 10.3245 11.217 10.6745C11.4503 11.0245 11.567 11.4217 11.567 11.8661V13.0328C11.567 13.2217 11.5031 13.3773 11.3753 13.4995C11.2475 13.6217 11.0892 13.6828 10.9003 13.6828H1.08366ZM12.2337 13.6828C12.3559 13.6495 12.4587 13.5717 12.542 13.4495C12.6253 13.3273 12.667 13.1773 12.667 12.9995V11.8995C12.667 11.1773 12.492 10.58 12.142 10.1078C11.792 9.63559 11.317 9.2217 10.717 8.86615C11.4392 8.96615 12.1198 9.09948 12.7587 9.26615C13.3975 9.43281 13.917 9.6217 14.317 9.83281C14.7059 10.0439 15.0142 10.33 15.242 10.6911C15.4698 11.0523 15.5837 11.4606 15.5837 11.9161V13.0328C15.5837 13.2217 15.5198 13.3773 15.392 13.4995C15.2642 13.6217 15.1059 13.6828 14.917 13.6828H12.2337ZM5.98366 7.86615C5.21699 7.86615 4.58921 7.6217 4.10033 7.13281C3.61144 6.64392 3.36699 6.01615 3.36699 5.24948C3.36699 4.4717 3.61144 3.84115 4.10033 3.35781C4.58921 2.87448 5.21699 2.63281 5.98366 2.63281C6.76144 2.63281 7.39199 2.87448 7.87533 3.35781C8.35866 3.84115 8.60033 4.46615 8.60033 5.23281C8.60033 6.01059 8.35866 6.64392 7.87533 7.13281C7.39199 7.6217 6.76144 7.86615 5.98366 7.86615ZM12.3337 5.23281C12.3337 6.01059 12.0892 6.64392 11.6003 7.13281C11.1114 7.6217 10.4837 7.86615 9.71699 7.86615C9.58366 7.86615 9.44477 7.85503 9.30033 7.83281C9.15588 7.81059 9.01699 7.77726 8.88366 7.73281C9.16144 7.43281 9.36977 7.07448 9.50866 6.65781C9.64755 6.24115 9.71699 5.7717 9.71699 5.24948C9.71699 4.72726 9.64755 4.26337 9.50866 3.85781C9.36977 3.45226 9.16144 3.08837 8.88366 2.76615C9.00588 2.7217 9.14199 2.68837 9.29199 2.66615C9.44199 2.64392 9.58366 2.63281 9.71699 2.63281C10.4837 2.63281 11.1114 2.87726 11.6003 3.36615C12.0892 3.85503 12.3337 4.47726 12.3337 5.23281ZM1.73366 12.3661H10.2337V11.8995C10.2337 11.7328 10.1809 11.5661 10.0753 11.3995C9.96977 11.2328 9.83922 11.1217 9.68366 11.0661C8.90588 10.7217 8.25588 10.4911 7.73366 10.3745C7.21144 10.2578 6.6281 10.1995 5.98366 10.1995C5.36144 10.1995 4.7781 10.2578 4.23366 10.3745C3.68921 10.4911 3.03366 10.7217 2.26699 11.0661C2.12255 11.1217 1.99755 11.2328 1.89199 11.3995C1.78644 11.5661 1.73366 11.7328 1.73366 11.8995V12.3661ZM5.98366 6.64948C6.39477 6.64948 6.73088 6.51615 6.99199 6.24948C7.2531 5.98281 7.38366 5.64948 7.38366 5.24948C7.38366 4.83837 7.2531 4.50226 6.99199 4.24115C6.73088 3.98003 6.39477 3.84948 5.98366 3.84948C5.58366 3.84948 5.25033 3.98003 4.98366 4.24115C4.71699 4.50226 4.58366 4.83281 4.58366 5.23281C4.58366 5.64392 4.71699 5.98281 4.98366 6.24948C5.25033 6.51615 5.58366 6.64948 5.98366 6.64948Z" fill="#777E85"/>
</svg>
