<svg width="20" height="12" viewBox="0 0 20 12" fill="none" xmlns="http://www.w3.org/2000/svg">
<path d="M10 10.793C9.88893 10.793 9.78476 10.7721 9.68754 10.7305C9.59032 10.6888 9.50004 10.6332 9.41671 10.5638C8.75004 9.96658 8.26393 9.29991 7.95837 8.5638C7.65282 7.82769 7.50004 6.97353 7.50004 6.0013C7.50004 5.02908 7.65629 4.17491 7.96879 3.4388C8.28129 2.70269 8.77087 2.03602 9.43754 1.4388C9.52087 1.36936 9.60768 1.3138 9.69796 1.27214C9.78824 1.23047 9.88893 1.20964 10 1.20964C10.1112 1.20964 10.2153 1.23047 10.3125 1.27214C10.4098 1.3138 10.5 1.36936 10.5834 1.4388C11.25 2.02214 11.7362 2.68186 12.0417 3.41797C12.3473 4.15408 12.5 5.01519 12.5 6.0013C12.5 6.98741 12.3438 7.84853 12.0313 8.58464C11.7188 9.32075 11.2292 9.98047 10.5625 10.5638C10.4792 10.6332 10.3924 10.6888 10.3021 10.7305C10.2118 10.7721 10.1112 10.793 10 10.793ZM13.3334 11.8346C12.9028 11.8346 12.4862 11.7895 12.0834 11.6992C11.6806 11.6089 11.2987 11.4805 10.9375 11.3138C11.1181 11.1888 11.2882 11.0395 11.448 10.8659C11.6077 10.6923 11.757 10.5221 11.8959 10.3555C12.132 10.4249 12.3681 10.4805 12.6042 10.5221C12.8403 10.5638 13.0834 10.5846 13.3334 10.5846C14.5973 10.5846 15.6771 10.1367 16.573 9.24089C17.4688 8.34505 17.9167 7.26519 17.9167 6.0013C17.9167 4.72353 17.4688 3.64019 16.573 2.7513C15.6771 1.86241 14.5973 1.41797 13.3334 1.41797C13.0834 1.41797 12.8403 1.43533 12.6042 1.47005C12.3681 1.50477 12.1389 1.55686 11.9167 1.6263C11.7778 1.45964 11.625 1.28602 11.4584 1.10547C11.2917 0.924913 11.1181 0.77908 10.9375 0.667969C11.2987 0.501302 11.6806 0.376302 12.0834 0.292969C12.4862 0.209635 12.9028 0.167969 13.3334 0.167969C14.9445 0.167969 16.3195 0.733941 17.4584 1.86589C18.5973 2.99783 19.1667 4.3763 19.1667 6.0013C19.1667 7.61241 18.5973 8.98742 17.4584 10.1263C16.3195 11.2652 14.9445 11.8346 13.3334 11.8346ZM6.66671 11.8346C5.0556 11.8346 3.6806 11.2652 2.54171 10.1263C1.40282 8.98742 0.833374 7.61241 0.833374 6.0013C0.833374 4.3763 1.40282 2.99783 2.54171 1.86589C3.6806 0.733941 5.0556 0.167969 6.66671 0.167969C7.09726 0.167969 7.51393 0.209635 7.91671 0.292969C8.31949 0.376302 8.70143 0.501302 9.06254 0.667969C8.88199 0.77908 8.70837 0.924913 8.54171 1.10547C8.37504 1.28602 8.22226 1.45964 8.08337 1.6263C7.86115 1.55686 7.63199 1.50477 7.39587 1.47005C7.15976 1.43533 6.91671 1.41797 6.66671 1.41797C5.40282 1.41797 4.32296 1.86241 3.42712 2.7513C2.53129 3.64019 2.08337 4.72353 2.08337 6.0013C2.08337 7.26519 2.53129 8.34505 3.42712 9.24089C4.32296 10.1367 5.40282 10.5846 6.66671 10.5846C6.91671 10.5846 7.15976 10.5638 7.39587 10.5221C7.63199 10.4805 7.8681 10.4249 8.10421 10.3555C8.2431 10.5221 8.3924 10.6923 8.55212 10.8659C8.71185 11.0395 8.88199 11.1888 9.06254 11.3138C8.70143 11.4805 8.31949 11.6089 7.91671 11.6992C7.51393 11.7895 7.09726 11.8346 6.66671 11.8346Z" fill="#01B46A"/>
</svg>
