<svg width="22" height="22" viewBox="0 0 22 22" fill="none" xmlns="http://www.w3.org/2000/svg">
<path d="M4.99583 19.2498C4.36944 19.2498 3.83854 19.0321 3.40313 18.5967C2.96771 18.1613 2.75 17.6304 2.75 17.004C2.75 16.3776 2.96771 15.8467 3.40313 15.4113C3.83854 14.9759 4.36944 14.7582 4.99583 14.7582C5.62222 14.7582 6.15312 14.9759 6.58854 15.4113C7.02396 15.8467 7.24167 16.3776 7.24167 17.004C7.24167 17.6304 7.02396 18.1613 6.58854 18.5967C6.15312 19.0321 5.62222 19.2498 4.99583 19.2498ZM16.2708 19.2498C16.2708 17.3859 15.9156 15.6328 15.2052 13.9905C14.4948 12.3481 13.5285 10.9158 12.3062 9.69359C11.084 8.47136 9.65174 7.50505 8.00938 6.79463C6.36701 6.08421 4.61389 5.729 2.75 5.729V3.6665C4.90417 3.6665 6.92465 4.07518 8.81146 4.89255C10.6983 5.70991 12.3483 6.82518 13.7615 8.23838C15.1747 9.65157 16.2899 11.3016 17.1073 13.1884C17.9247 15.0752 18.3333 17.0957 18.3333 19.2498H16.2708ZM10.8167 19.2498C10.8167 16.8359 10.0757 14.8575 8.59375 13.3144C7.11181 11.7714 5.16389 10.9998 2.75 10.9998V8.93734C4.23194 8.93734 5.59167 9.19706 6.82917 9.7165C8.06667 10.2359 9.13229 10.954 10.026 11.8707C10.9198 12.7873 11.6187 13.8759 12.1229 15.1363C12.6271 16.3967 12.8792 17.7679 12.8792 19.2498H10.8167Z" fill="black"/>
</svg>
